<?xml version="1.0" standalone="no"?>
<!DOCTYPE svg PUBLIC "-//W3C//DTD SVG 20010904//EN"
 "http://www.w3.org/TR/2001/REC-SVG-20010904/DTD/svg10.dtd">
<svg version="1.0" xmlns="http://www.w3.org/2000/svg"
 width="1280.000000pt" height="679.000000pt" viewBox="0 0 1280.000000 679.000000"
 preserveAspectRatio="xMidYMid meet">

<g transform="translate(0.000000,679.000000) scale(0.100000,-0.100000)"
fill="#000000" stroke="none">
<path d="M6987 6462 l-277 -106 -31 -95 c-81 -253 -129 -569 -129 -853 l0
-106 43 13 c23 7 67 15 98 19 l56 7 -1 67 c0 60 4 76 37 137 77 141 317 636
397 817 46 104 85 186 87 184 2 -2 -19 -57 -47 -122 -27 -65 -50 -122 -50
-126 0 -5 8 -8 18 -9 11 -1 8 -3 -7 -8 -20 -5 -37 -33 -88 -145 -35 -77 -61
-141 -59 -143 2 -3 14 1 26 7 12 7 52 15 88 18 65 7 67 8 89 47 12 22 28 63
34 92 10 45 10 55 -5 78 -9 14 -27 30 -39 35 -18 7 -19 9 -4 9 11 1 24 16 34
39 18 42 30 211 17 235 -8 13 -50 -1 -287 -91z"/>
<path d="M6334 6492 c-62 -22 -97 -50 -192 -156 -129 -143 -215 -264 -262
-371 -39 -90 -44 -110 -48 -194 -5 -103 28 -352 54 -406 16 -33 75 -74 140
-96 21 -8 45 -22 52 -32 22 -29 62 -44 165 -61 l98 -17 44 40 c24 22 65 51 93
65 l49 25 1 158 c2 296 56 620 141 839 l29 75 -66 43 c-107 69 -182 106 -216
106 -17 -1 -54 -9 -82 -18z"/>
<path d="M7054 5986 c-23 -10 -43 -34 -74 -91 l-42 -77 -3 -191 c-1 -132 -7
-210 -17 -249 l-15 -58 33 -6 c18 -3 57 -1 86 6 42 10 63 23 102 62 43 45 48
54 43 84 -4 26 0 40 17 61 21 25 23 37 22 120 -2 74 -5 96 -20 112 -21 23 -23
91 -6 182 6 29 10 53 10 55 0 10 -109 2 -136 -10z"/>
<path d="M4615 5769 c-20 -12 -35 -29 -35 -40 0 -3 16 -23 36 -44 19 -21 32
-41 27 -45 -4 -5 -91 -10 -193 -12 -199 -5 -252 -16 -265 -57 -18 -57 33 -82
73 -36 19 22 27 24 84 19 158 -12 539 -22 573 -14 21 5 45 15 53 24 16 16 18
12 -34 83 -28 39 9 46 198 36 90 -4 191 -5 224 -1 67 7 226 58 231 73 2 6 -76
10 -219 10 -123 0 -338 4 -478 8 -195 6 -260 5 -275 -4z"/>
<path d="M6840 5623 c-65 -120 -75 -146 -78 -198 -1 -33 1 -66 5 -72 5 -7 36
-14 68 -15 l60 -3 13 60 c17 80 28 327 15 349 -8 14 -23 -9 -83 -121z"/>
<path d="M4230 5491 c-115 -21 -154 -33 -187 -55 -24 -16 -43 -31 -43 -34 0
-3 8 -29 17 -58 l16 -53 46 33 c42 30 60 35 200 56 93 15 155 29 158 36 2 7 1
32 -4 56 -11 54 -13 54 -203 19z"/>
<path d="M7976 5463 c-4 -5 -31 -9 -59 -9 -129 -4 -236 -15 -282 -31 -65 -22
-72 -28 -81 -66 -3 -17 -13 -37 -20 -45 -16 -15 -18 -96 -7 -256 l6 -99 71
-32 c99 -46 190 -66 298 -66 150 -1 278 30 399 98 49 28 49 28 49 79 0 27 -5
110 -11 184 -11 139 -12 142 -73 212 -19 22 -120 35 -150 19 -17 -10 -28 -9
-51 3 -32 17 -77 21 -89 9z"/>
<path d="M4640 5398 c-24 -24 -59 -63 -79 -87 -19 -24 -56 -59 -80 -78 -53
-40 -54 -39 -66 75 -6 57 -10 72 -24 72 -9 0 -72 -11 -141 -23 -132 -25 -186
-48 -175 -76 14 -35 135 -442 135 -454 0 -37 -210 -323 -354 -481 l-81 -90 63
34 c209 111 499 376 640 585 94 141 144 253 187 427 17 69 33 109 47 121 l20
17 -25 0 c-16 0 -40 -15 -67 -42z"/>
<path d="M4712 5408 c-6 -7 -22 -64 -36 -126 -14 -62 -43 -153 -65 -203 -124
-281 -439 -616 -743 -790 -76 -43 -107 -66 -103 -76 3 -8 5 -19 5 -24 0 -24
101 7 205 62 99 52 122 70 221 171 225 229 409 520 495 781 17 54 35 96 39 95
4 -2 73 -86 153 -188 161 -206 357 -406 472 -481 70 -47 262 -136 271 -127 2
3 -7 32 -21 64 -24 55 -30 61 -93 94 -231 119 -420 297 -683 643 -50 64 -94
117 -98 117 -5 0 -13 -6 -19 -12z"/>
<path d="M6630 5300 c-180 -49 -260 -110 -305 -233 l-28 -77 21 -48 c11 -26
22 -74 24 -105 2 -40 7 -58 18 -61 8 -3 76 -7 150 -10 90 -3 121 -2 93 4 -119
25 -185 114 -187 253 l-1 68 98 96 99 96 73 -6 c95 -7 144 -33 260 -138 48
-43 91 -79 96 -79 13 0 11 19 -7 79 -18 61 -70 123 -128 153 -59 31 -178 34
-276 8z"/>
<path d="M4700 5178 c-45 -126 -155 -345 -228 -453 -74 -111 -231 -295 -318
-372 -35 -32 -64 -63 -64 -70 0 -7 31 -129 70 -272 39 -142 70 -270 70 -283
-1 -12 -7 -34 -15 -48 -22 -38 -19 -60 8 -57 19 2 22 -2 20 -31 0 -18 -14 -58
-30 -90 -15 -31 -29 -60 -31 -64 -2 -5 8 -8 22 -8 28 0 33 -9 14 -28 -6 -6 -9
-14 -6 -18 9 -8 81 18 91 33 11 17 44 16 128 -3 67 -15 71 -15 84 3 13 17 14
17 40 -7 19 -18 28 -21 34 -12 6 10 10 10 20 -2 6 -8 23 -17 36 -20 15 -4 25
-14 25 -25 0 -14 10 -20 42 -24 24 -3 44 -11 46 -16 2 -7 78 -11 227 -11 232
0 254 4 239 43 -7 18 15 32 70 41 29 6 36 10 27 19 -14 14 -15 47 -1 47 6 0
27 -7 47 -15 20 -8 37 -14 39 -12 2 2 -3 25 -11 52 -19 63 -19 254 0 360 8 44
24 161 35 260 12 99 31 239 43 311 l22 131 -57 27 c-158 74 -409 318 -630 613
-39 51 -72 93 -73 93 -1 0 -17 -41 -35 -92z"/>
<path d="M6529 5176 l-91 -90 4 -71 c6 -85 45 -169 93 -197 17 -9 80 -27 140
-38 128 -25 218 -53 258 -82 16 -11 32 -17 37 -12 4 5 44 68 89 139 l81 130
-53 50 c-89 83 -245 208 -285 229 -21 11 -68 22 -109 25 l-73 6 -91 -89z"/>
<path d="M8366 5056 l7 -74 -41 -26 c-114 -72 -259 -110 -417 -110 -131 0
-197 13 -322 66 l-73 30 -1 61 c-1 34 -4 74 -8 89 l-6 27 -47 -34 c-73 -53
-107 -140 -78 -195 9 -17 21 -19 110 -17 84 2 102 -1 117 -16 17 -17 17 -19 1
-47 l-17 -30 40 -10 c32 -9 41 -16 45 -40 7 -35 11 -36 121 -51 120 -16 316
-6 418 20 250 66 364 189 292 316 -20 35 -116 115 -139 115 -5 0 -6 -33 -2
-74z"/>
<path d="M6115 5026 c-40 -17 -55 -53 -55 -131 l0 -64 38 -10 c20 -6 77 -22
127 -35 49 -14 91 -23 94 -20 3 2 7 30 9 62 3 50 0 65 -30 122 -19 37 -44 70
-58 77 -32 16 -87 16 -125 -1z m118 -91 c53 -42 88 -88 75 -100 -8 -9 -110 16
-150 36 -44 23 -56 51 -34 84 23 35 43 31 109 -20z"/>
<path d="M7066 4808 c-83 -135 -100 -181 -73 -191 7 -4 6 -6 -4 -6 -9 -1 -22
-8 -29 -16 -9 -11 -32 -15 -89 -13 l-76 1 78 6 c81 6 99 17 89 53 -16 61 -155
91 -519 113 l-101 6 -11 -52 c-6 -29 -10 -54 -7 -56 8 -9 174 -33 316 -47 80
-7 128 -14 108 -15 -26 -1 -38 -6 -41 -18 -4 -16 -5 -16 -6 -2 -1 13 -16 18
-73 24 -112 10 -281 36 -297 44 -9 6 -23 -2 -41 -23 -27 -30 -643 -1320 -662
-1384 -6 -23 -5 -40 4 -60 19 -40 78 -51 323 -62 116 -5 282 -14 370 -21 167
-12 300 -9 680 15 280 18 388 41 493 102 61 36 72 68 72 213 0 152 -1 154 -48
130 -20 -11 -48 -19 -62 -18 -18 0 -12 4 22 15 84 26 91 55 58 251 -58 346
-188 727 -255 753 -14 5 -25 12 -25 14 0 3 12 42 26 88 28 87 67 172 84 183 5
3 10 10 10 14 0 10 -95 53 -174 81 l-54 18 -86 -140z m-369 -280 c-3 -8 -6 -5
-6 6 -1 11 2 17 5 13 3 -3 4 -12 1 -19z m-20 -70 c-3 -8 -6 -5 -6 6 -1 11 2
17 5 13 3 -3 4 -12 1 -19z m-10 -40 c-3 -8 -6 -5 -6 6 -1 11 2 17 5 13 3 -3 4
-12 1 -19z m-10 -40 c-3 -8 -6 -5 -6 6 -1 11 2 17 5 13 3 -3 4 -12 1 -19z
m-50 -200 c-3 -8 -6 -5 -6 6 -1 11 2 17 5 13 3 -3 4 -12 1 -19z m-10 -40 c-3
-8 -6 -5 -6 6 -1 11 2 17 5 13 3 -3 4 -12 1 -19z m-10 -40 c-3 -8 -6 -5 -6 6
-1 11 2 17 5 13 3 -3 4 -12 1 -19z m-10 -50 c-3 -7 -5 -2 -5 12 0 14 2 19 5
13 2 -7 2 -19 0 -25z m-10 -40 c-3 -8 -6 -5 -6 6 -1 11 2 17 5 13 3 -3 4 -12
1 -19z m-10 -50 c-3 -8 -6 -5 -6 6 -1 11 2 17 5 13 3 -3 4 -12 1 -19z m-10
-50 c-3 -8 -6 -5 -6 6 -1 11 2 17 5 13 3 -3 4 -12 1 -19z m-10 -60 c-3 -7 -5
-2 -5 12 0 14 2 19 5 13 2 -7 2 -19 0 -25z m-10 -80 c-2 -13 -4 -5 -4 17 -1
22 1 32 4 23 2 -10 2 -28 0 -40z m-10 -140 c-2 -18 -4 -6 -4 27 0 33 2 48 4
33 2 -15 2 -42 0 -60z m-10 -110 c-2 -13 -4 -5 -4 17 -1 22 1 32 4 23 2 -10 2
-28 0 -40z m911 5 c-10 -2 -28 -2 -40 0 -13 2 -5 4 17 4 22 1 32 -1 23 -4z"/>
<path d="M7425 4853 c-11 -3 -26 -10 -33 -16 -28 -22 -84 -156 -106 -251 l-7
-29 103 6 c169 9 256 49 278 125 7 27 6 36 -11 53 -10 10 -29 19 -41 19 -13 0
-33 3 -46 6 -23 7 -23 7 7 25 33 20 41 53 15 63 -18 7 -129 6 -159 -1z"/>
<path d="M6053 4795 c-7 -20 3 -85 16 -98 6 -6 54 -7 125 -2 113 7 116 8 116
30 0 26 -9 30 -147 65 -98 24 -102 24 -110 5z"/>
<path d="M6150 4683 c-41 -2 -79 -8 -84 -13 -6 -6 -4 -25 3 -48 13 -39 14 -39
50 -31 20 5 57 9 82 9 49 0 80 23 94 68 6 20 3 22 -32 20 -21 -1 -72 -4 -113
-5z"/>
<path d="M6066 4555 c-91 -32 -134 -68 -174 -146 -51 -101 -65 -237 -31 -302
9 -16 17 -9 66 62 63 92 134 160 176 168 24 5 36 21 83 114 30 60 54 113 54
119 0 19 -104 10 -174 -15z"/>
<path d="M6060 4296 c-19 -13 -50 -42 -68 -65 l-33 -41 39 0 c37 0 41 3 76 59
50 81 47 89 -14 47z"/>
<path d="M3958 4230 l-97 -50 44 -101 c25 -55 47 -116 51 -135 7 -39 10 -40
35 -18 17 15 19 14 38 -17 12 -19 21 -40 21 -47 0 -8 12 -11 32 -10 22 2 33
-2 34 -12 13 -86 14 -88 36 -82 20 5 21 3 15 -53 l-6 -57 25 23 c17 16 24 33
24 59 0 20 -31 149 -70 288 -38 138 -70 254 -70 257 0 10 -16 3 -112 -45z"/>
<path d="M5600 4055 c-31 -32 -51 -44 -64 -41 -34 9 -83 -57 -101 -136 -36
-157 -38 -366 -5 -452 6 -16 9 -30 7 -33 -2 -2 -24 5 -48 16 -51 23 -65 19
-44 -13 15 -23 15 -24 -22 -30 -68 -12 -75 -16 -69 -38 3 -14 -2 -27 -16 -38
-27 -22 -18 -48 19 -52 28 -3 30 -8 17 -42 -7 -19 1 -20 55 -5 9 3 19 -13 30
-45 17 -49 41 -73 41 -42 0 9 5 16 10 16 6 0 10 -5 10 -10 0 -14 46 -60 60
-60 5 0 10 11 10 24 0 22 3 24 34 19 37 -6 39 -3 51 68 5 27 1 47 -15 79 l-22
42 36 52 c46 68 47 86 2 86 -48 0 -53 15 -16 58 17 20 35 43 41 50 5 6 19 12
30 12 35 0 34 29 -2 66 l-33 34 37 31 c41 34 50 78 21 110 -15 16 -13 21 16
63 31 47 32 66 3 66 -10 0 12 29 55 74 40 41 72 82 72 91 0 15 -7 16 -55 10
-37 -4 -55 -3 -55 4 0 27 -49 8 -90 -34z"/>
<path d="M3732 3991 c-9 -5 3 -30 43 -90 53 -80 66 -111 45 -111 -17 0 -11
-26 11 -54 15 -19 18 -31 11 -38 -6 -6 -22 2 -46 27 -41 41 -59 41 -64 2 -2
-14 -14 -33 -28 -41 -28 -19 -31 -51 -8 -77 15 -17 14 -19 -19 -33 -38 -15
-60 -45 -49 -63 4 -7 20 -16 35 -22 36 -14 34 -24 -13 -61 -40 -32 -51 -65
-29 -87 7 -7 -4 -21 -40 -48 -52 -38 -63 -58 -35 -69 9 -3 78 -6 154 -6 170 0
232 -18 165 -48 -37 -17 -30 -32 14 -32 31 0 40 -4 44 -21 7 -25 15 -24 182
16 55 13 118 25 140 27 l40 3 5 -45 c5 -47 10 -50 64 -36 20 5 25 2 28 -16 5
-36 39 -33 77 6 28 29 38 34 66 29 35 -6 49 6 50 42 0 13 6 19 15 16 35 -8 45
-5 48 17 3 21 7 23 38 18 29 -6 34 -4 34 13 0 11 9 22 20 26 23 7 25 18 10 46
-8 14 -21 19 -50 19 -35 0 -40 3 -40 23 0 25 -39 48 -69 40 -13 -3 -23 2 -30
16 -14 24 -31 28 -31 6 0 -19 4 -19 -82 5 -90 25 -116 26 -98 5 7 -8 11 -15 9
-15 -2 -1 -25 -2 -50 -4 -25 -2 -55 -8 -65 -14 -27 -14 -48 0 -39 27 5 18 2
21 -19 21 l-25 0 39 82 c22 45 40 88 40 95 0 18 -21 16 -49 -3 -23 -16 -23
-16 -16 7 4 13 10 30 12 37 3 6 1 12 -4 12 -5 0 -15 -6 -22 -12 -10 -11 -11
-1 -5 51 7 61 6 63 -13 52 -18 -9 -22 -7 -27 12 -3 12 -6 31 -6 42 -1 35 -15
48 -37 36 -18 -9 -22 -6 -38 34 -19 50 -27 54 -49 24 -14 -20 -15 -20 -34 25
-23 51 -77 92 -98 75 -8 -7 -19 -7 -31 -1 -30 15 -67 22 -81 13z"/>
<path d="M1505 3310 c-245 -44 -410 -186 -455 -391 -16 -70 -8 -236 13 -304
21 -64 77 -156 147 -240 51 -61 109 -113 359 -321 211 -175 289 -281 312 -423
43 -261 -139 -461 -418 -461 -233 0 -392 109 -432 298 -6 29 -11 71 -11 92 0
28 -4 40 -14 40 -24 0 -28 -28 -33 -227 -7 -216 -7 -213 65 -244 120 -52 310
-76 465 -59 250 28 432 140 521 322 55 112 69 183 63 313 -11 245 -105 378
-482 680 -206 165 -309 266 -344 337 -66 136 -35 319 68 410 91 80 248 109
402 74 147 -33 225 -102 249 -218 18 -92 20 -98 35 -98 14 0 21 75 28 283 3
92 2 98 -18 101 -207 40 -419 54 -520 36z"/>
<path d="M7550 3216 c-41 -39 -212 -104 -281 -107 -20 -1 -16 -4 17 -20 99
-45 290 -68 342 -40 53 28 48 78 -16 144 -41 42 -42 42 -62 23z"/>
<path d="M11490 3197 c-83 -44 -113 -150 -67 -232 65 -115 239 -111 296 8 35
73 23 145 -35 199 -57 53 -125 62 -194 25z m155 -31 c58 -38 79 -116 48 -176
-46 -88 -152 -106 -220 -37 -69 68 -51 174 37 220 40 21 97 18 135 -7z"/>
<path d="M11512 3053 c2 -66 7 -98 16 -101 8 -2 12 10 12 42 0 60 18 60 50 1
14 -25 30 -45 37 -45 17 0 17 5 -9 51 -22 37 -22 41 -5 50 11 6 17 22 17 44 0
41 -20 55 -80 55 l-41 0 3 -97z m87 59 c13 -25 -5 -52 -34 -52 -22 0 -25 5
-25 35 0 31 3 35 25 35 13 0 29 -8 34 -18z"/>
<path d="M4328 2980 c-237 -43 -386 -177 -418 -375 -26 -158 30 -297 176 -441
36 -35 154 -131 262 -212 313 -234 363 -296 365 -445 1 -103 -24 -169 -87
-233 -70 -69 -139 -95 -271 -102 -113 -5 -184 7 -265 44 -108 50 -167 131
-178 243 -5 49 -11 66 -22 66 -19 0 -26 -42 -35 -206 -8 -146 -3 -162 58 -189
123 -54 423 -73 586 -37 224 50 385 213 410 415 32 256 -84 430 -454 682 -289
196 -366 286 -366 428 -1 118 51 197 159 243 137 59 369 37 476 -44 32 -25 53
-64 78 -145 28 -94 45 -47 49 140 l3 132 -99 18 c-115 21 -358 31 -427 18z"/>
<path d="M9181 2979 c-410 -51 -722 -318 -836 -714 -92 -321 16 -707 263 -937
325 -304 917 -342 1308 -86 195 129 330 315 400 553 31 109 43 315 25 434 -49
311 -256 563 -562 681 -160 62 -420 92 -598 69z m334 -104 c247 -67 439 -257
524 -521 41 -126 55 -241 48 -414 -7 -176 -30 -278 -92 -407 -129 -265 -428
-406 -745 -350 -343 59 -585 315 -655 692 -19 102 -22 320 -5 415 58 337 267
548 590 600 77 12 263 4 335 -15z"/>
<path d="M10758 2980 c-197 -35 -341 -140 -399 -287 -32 -83 -32 -235 -1 -312
55 -131 151 -229 422 -432 217 -163 297 -237 332 -307 19 -40 23 -63 23 -147
0 -92 -2 -104 -30 -154 -61 -111 -158 -161 -325 -169 -255 -11 -424 97 -438
280 -4 57 -23 91 -37 68 -18 -29 -32 -333 -17 -357 12 -19 92 -51 173 -69 102
-23 366 -23 469 -1 191 42 339 170 391 338 23 73 25 200 5 275 -39 147 -169
296 -385 444 -285 195 -350 252 -402 350 -32 63 -33 177 -2 236 63 118 217
178 399 155 155 -20 240 -68 273 -156 12 -31 21 -63 21 -73 0 -26 18 -49 29
-37 5 6 12 80 16 165 l7 155 -113 19 c-126 21 -338 30 -411 16z"/>
<path d="M2085 2940 c-8 -13 4 -17 85 -29 88 -14 109 -36 120 -127 5 -38 10
-283 10 -544 0 -503 7 -601 49 -723 90 -260 276 -401 576 -437 400 -48 720
126 828 450 47 142 49 169 56 745 6 530 7 551 26 585 18 30 30 37 83 50 35 8
63 20 62 25 0 6 -99 10 -275 10 -286 0 -345 -9 -205 -32 56 -10 81 -19 100
-38 25 -25 25 -27 31 -243 16 -540 7 -910 -27 -1050 -62 -257 -258 -411 -522
-412 -255 0 -453 155 -517 405 -30 118 -37 274 -33 761 4 583 -1 559 131 579
30 5 47 12 47 21 0 12 -52 14 -309 14 -197 0 -312 -4 -316 -10z"/>
<path d="M4930 2937 c0 -11 16 -17 53 -22 137 -17 146 -26 159 -167 6 -59 8
-386 5 -768 -6 -827 -5 -818 -127 -835 -33 -5 -50 -12 -50 -21 0 -8 3 -14 8
-15 14 0 607 -1 625 0 9 1 17 7 17 15 0 10 -20 16 -67 21 -148 16 -161 35
-174 254 -14 259 -11 1424 4 1444 8 12 38 20 101 28 165 20 298 -16 395 -106
106 -99 153 -210 155 -365 0 -86 -2 -101 -30 -160 -70 -149 -242 -249 -426
-250 -65 0 -88 -7 -88 -26 0 -21 44 -27 149 -21 196 13 344 72 454 181 111
109 162 245 155 411 -8 195 -112 319 -321 384 -82 25 -83 25 -539 29 -398 3
-458 1 -458 -11z"/>
<path d="M6200 2936 c0 -10 15 -17 48 -21 67 -8 94 -25 117 -70 19 -38 20 -64
23 -600 4 -560 -7 -957 -28 -1028 -13 -45 -39 -63 -102 -72 -31 -5 -48 -12
-48 -21 0 -8 3 -14 8 -15 11 -1 1245 -1 1265 0 9 1 17 7 17 14 0 9 -27 17 -87
25 -99 13 -126 31 -145 96 -7 26 -11 149 -12 341 l-1 300 145 3 c227 5 215 9
307 -111 181 -236 361 -457 428 -523 95 -94 170 -132 291 -144 100 -11 277
-13 312 -4 47 13 21 30 -63 41 -184 25 -290 119 -703 622 l-151 184 83 81
c113 110 188 230 215 341 41 171 8 306 -103 419 -59 61 -121 95 -228 128 -70
21 -93 22 -525 26 -391 3 -453 1 -453 -11 0 -10 17 -17 58 -21 89 -11 120 -24
140 -59 16 -30 17 -89 16 -797 -1 -841 -1 -852 -57 -894 -25 -18 -42 -21 -125
-20 -108 0 -166 15 -187 47 -8 12 -19 60 -24 107 -14 111 -15 1481 -1 1531 14
50 39 69 107 83 119 23 62 31 -239 34 -255 2 -298 0 -298 -12z m1360 -76 c167
-32 287 -150 329 -324 17 -69 15 -240 -4 -310 -34 -130 -105 -214 -205 -243
-89 -26 -375 -6 -417 29 -19 15 -19 821 0 836 25 21 211 28 297 12z"/>
<path d="M7677 873 c-37 -20 -66 -41 -64 -47 3 -6 11 -9 18 -7 8 2 49 10 92
19 80 16 91 26 59 55 -25 22 -26 22 -105 -20z"/>
<path d="M4241 773 c-5 -11 -49 -107 -96 -214 -135 -300 -134 -299 -186 -299
-10 0 -19 -7 -19 -15 0 -13 16 -15 97 -13 66 2 98 7 101 16 2 7 -5 12 -18 12
-20 0 -22 4 -17 32 3 18 17 59 31 91 l26 57 90 0 90 0 40 -86 c22 -48 37 -91
34 -96 -4 -6 0 -14 7 -19 18 -11 166 -12 173 0 3 4 29 2 58 -5 64 -17 82 -17
149 -3 75 16 129 68 136 130 9 75 -15 109 -129 191 -54 38 -103 78 -108 88
-29 55 11 100 89 100 62 0 88 -12 101 -46 5 -13 14 -24 19 -24 12 0 25 59 19
86 -4 24 -72 37 -151 30 -105 -10 -157 -55 -157 -137 0 -59 24 -90 130 -167
92 -67 109 -88 110 -129 0 -23 -8 -38 -32 -58 -29 -24 -38 -27 -92 -23 -49 4
-63 9 -83 32 -12 15 -23 36 -23 47 0 10 -7 19 -15 19 -12 0 -15 -13 -15 -56
l0 -56 -32 6 c-18 4 -41 14 -50 24 -9 9 -68 125 -130 256 -63 132 -119 241
-125 243 -6 2 -16 -4 -22 -14z m46 -210 c18 -42 33 -78 33 -80 0 -2 -31 -3
-70 -3 -38 0 -70 3 -70 8 0 16 63 162 68 157 3 -3 20 -39 39 -82z"/>
<path d="M4983 753 c-13 -34 -17 -73 -7 -73 3 0 19 11 36 25 26 22 39 25 114
25 l84 0 -1 -202 c-2 -237 -5 -262 -37 -266 -13 -2 -21 -9 -19 -15 5 -17 219
-17 224 1 3 8 -6 12 -24 12 -52 0 -53 6 -53 247 l0 223 59 0 c88 0 121 -9 132
-36 4 -13 13 -24 18 -24 10 0 21 91 12 102 -3 4 -123 8 -265 10 l-259 3 -14
-32z"/>
<path d="M8077 783 c-3 -4 -53 -116 -112 -248 -58 -132 -116 -248 -127 -257
-25 -22 -100 -24 -117 -4 -8 9 -11 82 -9 242 l3 228 23 6 c13 3 23 10 23 15
-1 6 -41 10 -101 10 -58 0 -101 -4 -102 -10 -2 -5 7 -11 20 -13 36 -5 42 -39
42 -221 0 -215 -6 -258 -34 -263 -50 -10 -89 13 -190 112 l-101 99 36 38 c49
51 59 73 59 129 0 40 -5 51 -35 80 -24 22 -51 36 -88 44 -64 13 -306 9 -309
-5 -1 -5 11 -12 27 -15 25 -4 31 -11 37 -45 9 -50 9 -323 0 -390 -6 -40 -11
-50 -30 -55 -13 -3 -23 -10 -23 -15 1 -16 213 -13 218 3 3 7 -4 12 -19 12 -46
0 -52 13 -53 107 l0 88 50 3 50 2 75 -85 c41 -47 93 -97 114 -113 l39 -27 261
0 c165 0 262 4 264 10 1 6 -6 11 -18 13 -27 4 -25 26 8 108 l29 69 92 3 92 3
39 -87 c22 -47 37 -91 34 -96 -4 -6 0 -14 7 -19 18 -11 166 -12 173 0 3 4 29
2 58 -6 102 -27 227 6 268 71 26 44 26 109 -1 153 -11 18 -65 65 -119 103 -54
38 -100 76 -104 85 -21 56 17 95 93 95 62 0 88 -12 102 -46 15 -41 34 -23 34
32 l0 49 -63 9 c-135 19 -242 -35 -242 -123 0 -72 27 -107 152 -195 74 -51 88
-69 88 -115 0 -58 -53 -88 -138 -78 -50 5 -92 41 -92 78 0 10 -7 19 -15 19
-12 0 -15 -13 -15 -56 l0 -56 -32 6 c-18 3 -42 17 -53 31 -11 14 -69 130 -130
257 -102 214 -125 253 -138 231z m-849 -58 c49 -20 72 -59 72 -123 0 -38 -5
-55 -25 -76 -23 -25 -30 -27 -92 -24 l-68 3 -3 104 c-1 58 0 111 2 118 7 18
67 17 114 -2z m891 -164 c17 -40 31 -75 31 -77 0 -2 -32 -4 -71 -4 -64 0 -70
2 -65 18 38 101 61 151 67 145 4 -4 21 -41 38 -82z"/>
<path d="M3580 765 c0 -9 9 -15 23 -15 45 0 47 -11 47 -245 0 -230 -3 -245
-43 -245 -10 0 -17 -5 -15 -12 6 -18 220 -18 225 0 3 7 -5 12 -20 12 -54 0
-57 12 -57 256 l0 224 38 0 c85 -1 152 -60 152 -135 0 -45 -56 -93 -119 -101
-71 -9 -61 -30 13 -27 110 4 186 72 186 165 0 43 -5 55 -33 83 -43 43 -103 55
-267 55 -109 0 -130 -2 -130 -15z"/>
<path d="M5567 774 c-13 -14 -7 -24 16 -24 12 0 27 -4 33 -8 15 -9 24 -238 16
-372 -7 -98 -8 -104 -30 -110 -13 -3 -23 -9 -23 -15 1 -6 68 -11 175 -13 196
-3 191 -4 198 71 3 41 -12 51 -29 17 -17 -34 -32 -40 -111 -40 -69 0 -73 1
-82 26 -6 14 -10 63 -10 110 l0 84 64 0 c77 0 96 -6 96 -30 0 -21 16 -35 24
-22 3 4 8 31 11 58 l7 50 -101 -4 -101 -4 0 91 0 91 73 0 c79 0 93 -5 98 -34
2 -11 9 -21 16 -23 13 -5 20 16 25 67 l3 35 -181 3 c-99 1 -183 -1 -187 -4z"/>
<path d="M6037 773 c-13 -12 -7 -23 12 -23 52 0 51 4 51 -239 0 -236 -3 -251
-43 -251 -10 0 -17 -5 -15 -12 4 -10 53 -14 190 -16 209 -3 207 -4 216 73 5
50 -12 63 -28 21 -13 -36 -40 -46 -123 -46 -57 0 -78 4 -88 17 -11 12 -15 65
-18 213 -3 214 1 240 44 240 16 0 25 6 25 15 0 12 -19 15 -108 15 -60 0 -112
-3 -115 -7z"/>
<path d="M6487 774 c-11 -12 3 -24 28 -24 14 0 29 -8 35 -19 11 -21 12 -385 1
-436 -4 -21 -13 -31 -29 -33 -13 -2 -21 -9 -19 -15 6 -18 340 -22 354 -5 16
20 26 95 14 102 -6 4 -17 -6 -25 -22 -19 -37 -33 -42 -106 -42 -92 0 -90 -3
-90 116 l0 104 59 0 c72 0 91 -6 91 -31 0 -10 6 -19 14 -19 15 0 26 30 26 75
l0 31 -95 -4 -95 -4 0 91 0 91 69 0 c71 0 101 -14 101 -46 0 -17 19 -19 24 -1
3 6 7 31 10 55 l6 42 -183 0 c-101 0 -187 -3 -190 -6z"/>
</g>
</svg>
